<svg id="Icons" xmlns="http://www.w3.org/2000/svg" viewBox="0 0 23.34 23.37"><defs><style>.cls-1{fill:#4c6a83;}</style></defs><title>call</title><path id="Call" class="cls-1" d="M13.57,23.37c-2.93,0-6.85-3.26-9.61-7.07C.55,11.59-1.52,5.45,1.37,3.35l2-1.46a2.53,2.53,0,0,1,2.05-.44A2.3,2.3,0,0,1,7,2.59L8.86,6.28a1,1,0,1,1-1.78.91L5.2,3.52A.27.27,0,0,0,5,3.4a.57.57,0,0,0-.44.11L2.55,5c-1.19.86-.6,5.14,3,10.15s7.52,6.9,8.7,6.05l2-1.47a.56.56,0,0,0,.23-.38.28.28,0,0,0-.07-.24L14.4,17a1,1,0,0,0-1-.26L12,17.1a3,3,0,0,1-3-.94l-.55-.64a23.32,23.32,0,0,1-2.36-3.24L5,10.48a1,1,0,1,1,1.72-1l1.07,1.79a21.48,21.48,0,0,0,2.15,3l.55.64a1,1,0,0,0,1,.31l1.4-.37a3,3,0,0,1,2.9.79l2.09,2.11a2.3,2.3,0,0,1,.63,1.81,2.58,2.58,0,0,1-1.06,1.82l-2,1.47A3.16,3.16,0,0,1,13.57,23.37Zm4.8-13.66A3.63,3.63,0,0,0,15,4.81a1,1,0,0,0-1,1,1,1,0,0,0,1,1,1.61,1.61,0,0,1,1.31.67A1.66,1.66,0,0,1,16.5,9a1,1,0,0,0,.59,1.28,1,1,0,0,0,.34.06A1,1,0,0,0,18.37,9.71ZM22.78,12a8.9,8.9,0,0,0-8.2-12,1,1,0,0,0-1,1,1,1,0,0,0,1,1,6.91,6.91,0,0,1,6.37,9.3,1,1,0,0,0,.59,1.29,1,1,0,0,0,.34.06A1,1,0,0,0,22.78,12Z"/></svg>