<svg xmlns="http://www.w3.org/2000/svg" width="72" height="62.62" viewBox="0 0 72 62.62">
  <defs>
    <style>
      .cls-1 {
        fill: #4c6a83;
        fill-rule: evenodd;
      }
    </style>
  </defs>
  <path id="icon" class="cls-1" d="M484,1379.8H430a9.035,9.035,0,0,1-9-9.05v-29.61a9.05,9.05,0,0,1,4.69-7.95l27.123-14.88a8.961,8.961,0,0,1,8.332-.15l28.237,14.2a6.052,6.052,0,0,1,.34,10.61l-27.859,16.35a8.967,8.967,0,0,1-9.764-.46l-17.842-12.82a3.011,3.011,0,0,1,3.486-4.91l17.842,12.82a2.982,2.982,0,0,0,3.255.15l27.858-16.34-28.236-14.2a2.963,2.963,0,0,0-2.775.05l-27.126,14.88a3.016,3.016,0,0,0-1.561,2.65v29.61a3.008,3.008,0,0,0,3,3.01h54a3.008,3.008,0,0,0,3-3.01v-18.11a3,3,0,1,1,6,0v18.11A9.035,9.035,0,0,1,484,1379.8Z" transform="translate(-421 -1317.19)"/>
</svg>
